<?xml version="1.0" encoding="UTF-8"?>
<!DOCTYPE svg PUBLIC "-//W3C//DTD SVG 1.1//EN" "http://www.w3.org/Graphics/SVG/1.1/DTD/svg11.dtd">
<!-- Creator: CorelDRAW -->
<svg xmlns="http://www.w3.org/2000/svg" xml:space="preserve" width="100.785mm" height="73.3432mm" version="1.1" style="shape-rendering:geometricPrecision; text-rendering:geometricPrecision; image-rendering:optimizeQuality; fill-rule:evenodd; clip-rule:evenodd"
viewBox="0 0 10078.54 7334.33"
 xmlns:xlink="http://www.w3.org/1999/xlink"
 xmlns:xodm="http://www.corel.com/coreldraw/odm/2003">
 <defs>
  <style type="text/css">
   <![CDATA[
    .fil1 {fill:#008DD2}
    .fil0 {fill:#2B2B2A;fill-rule:nonzero}
   ]]>
  </style>
 </defs>
 <g id="Layer_x0020_1">
  <metadata id="CorelCorpID_0Corel-Layer"/>
  <path class="fil0" d="M1223.45 7317.15l-221.63 0 0 -300.26 -779.91 0 0 300.26 -221.91 0 0 -611.87c0,-89.12 15.43,-171.24 46.01,-246.38 30.87,-75.14 73.39,-139.79 128.14,-193.67 54.46,-54.17 119.11,-96.1 193.67,-126.39 74.55,-30 155.8,-45.14 244.05,-45.14l500.04 0c15.14,0 29.7,2.91 43.39,8.45 13.69,5.82 25.63,13.68 35.82,23.88 10.19,10.19 18.35,22.13 23.88,35.82 5.83,13.68 8.45,28.25 8.45,43.68l0 1111.62zm-1001.54 -522.17l779.91 0 0 -479.36 -389.95 0c-6.99,0 -21.26,0.87 -43.11,2.91 -21.84,2.04 -47.17,6.99 -76.01,14.85 -28.54,7.86 -58.82,20.1 -90.86,36.7 -31.74,16.6 -61.16,39.31 -87.95,68.14 -26.5,29.13 -48.64,65.53 -66.11,108.92 -17.18,43.4 -25.92,96.4 -25.92,158.14l0 89.7zm2543.59 27.37c0,74.56 -12.81,143 -38.44,205.61 -25.63,62.61 -61.16,116.49 -106.59,161.92 -45.72,45.73 -99.6,80.96 -161.92,106.3 -62.33,25.34 -129.89,38.15 -203.28,38.15l-300.55 0c-73.39,0 -141.25,-12.81 -203.86,-38.15 -62.61,-25.34 -116.49,-60.57 -161.92,-106.3 -45.73,-45.43 -81.26,-99.31 -107.17,-161.92 -25.92,-62.61 -38.74,-131.05 -38.74,-205.61l0 -233.85c0,-73.98 12.82,-142.41 38.74,-205.32 25.91,-62.61 61.44,-116.78 107.17,-161.92 45.43,-45.14 99.31,-80.67 161.92,-106.3 62.61,-25.63 130.47,-38.44 203.86,-38.44l300.55 0c73.39,0 140.95,12.81 203.28,38.44 62.32,25.63 116.2,61.16 161.92,106.3 45.43,45.14 80.96,99.31 106.59,161.92 25.63,62.91 38.44,131.34 38.44,205.32l0 233.85zm-221.92 -233.85c0,-43.69 -6.99,-83.59 -20.96,-119.12 -13.98,-35.53 -33.5,-65.81 -58.83,-91.15 -25.34,-25.34 -55.63,-44.85 -91.45,-58.83 -35.53,-13.98 -74.55,-20.97 -117.07,-20.97l-300.55 0c-43.1,0 -82.42,6.99 -117.95,20.97 -35.53,13.98 -66.11,33.49 -91.73,58.83 -25.63,25.34 -45.44,55.62 -59.41,91.15 -13.98,35.53 -20.97,75.43 -20.97,119.12l0 233.85c0,43.69 6.99,83.29 20.97,118.82 13.97,35.83 33.78,66.11 59.41,91.45 25.62,25.34 56.2,44.85 91.73,58.83 35.53,13.98 74.85,20.97 117.95,20.97l298.8 0c43.1,0 82.42,-6.99 118.24,-20.97 35.53,-13.98 66.11,-33.49 91.44,-58.83 25.63,-25.34 45.44,-55.62 59.42,-91.45 13.97,-35.53 20.96,-75.13 20.96,-118.82l0 -233.85zm1663.79 634c0,15.73 -3.2,30.58 -9.03,44.27 -6.11,13.69 -13.98,25.63 -23.88,35.53 -9.9,9.9 -21.84,17.76 -35.53,23.3 -13.69,5.82 -27.96,8.73 -43.39,8.73 -13.69,0 -27.38,-2.62 -41.36,-7.86 -13.97,-4.95 -26.5,-13.4 -37.27,-24.76l-810.49 -846.3 0 861.74 -221.92 0 0 -1128.8c0,-22.72 6.41,-43.39 19.22,-61.74 12.82,-18.64 29.13,-32.33 49.22,-41.36 20.97,-8.73 42.52,-10.77 64.65,-6.4 22.43,4.07 41.36,14.56 57.38,30.87l810.48 845.72 0 -861.74 221.92 0 0 1128.8zm1269.46 -405.39l-701.28 0 0 -223.37 701.28 0 0 223.37zm99.02 -501.49l-889.12 0 0 1001.53 -221.92 0 0 -1111.62c0,-15.43 2.92,-30 8.74,-43.68 5.53,-13.69 13.4,-25.63 23.3,-35.82 9.9,-10.2 21.84,-18.06 35.53,-23.88 13.69,-5.54 28.25,-8.45 44.26,-8.45l999.21 0 0 221.92zm1302.95 1001.53l-1012.02 0c-16.01,0 -30.57,-2.91 -44.26,-8.45 -13.69,-5.82 -25.63,-13.68 -35.53,-23.59 -9.9,-9.9 -17.77,-21.84 -23.3,-35.23 -5.82,-13.69 -8.74,-28.54 -8.74,-44.56l0 -1111.62 221.92 0 0 1001.53 901.93 0 0 221.92zm1428.48 -494.8c0,74.56 -12.81,143 -38.44,205.61 -25.63,62.61 -61.16,116.49 -106.59,161.92 -45.72,45.73 -99.6,80.96 -161.92,106.3 -62.33,25.34 -129.89,38.15 -203.28,38.15l-300.55 0c-73.39,0 -141.25,-12.81 -203.86,-38.15 -62.61,-25.34 -116.49,-60.57 -161.92,-106.3 -45.73,-45.43 -81.26,-99.31 -107.17,-161.92 -25.92,-62.61 -38.74,-131.05 -38.74,-205.61l0 -233.85c0,-73.98 12.82,-142.41 38.74,-205.32 25.91,-62.61 61.44,-116.78 107.17,-161.92 45.43,-45.14 99.31,-80.67 161.92,-106.3 62.61,-25.63 130.47,-38.44 203.86,-38.44l300.55 0c73.39,0 140.95,12.81 203.28,38.44 62.32,25.63 116.2,61.16 161.92,106.3 45.43,45.14 80.96,99.31 106.59,161.92 25.63,62.91 38.44,131.34 38.44,205.32l0 233.85zm-221.92 -233.85c0,-43.69 -6.99,-83.59 -20.96,-119.12 -13.98,-35.53 -33.5,-65.81 -58.83,-91.15 -25.34,-25.34 -55.63,-44.85 -91.45,-58.83 -35.53,-13.98 -74.55,-20.97 -117.07,-20.97l-300.55 0c-43.1,0 -82.42,6.99 -117.95,20.97 -35.53,13.98 -66.11,33.49 -91.73,58.83 -25.63,25.34 -45.44,55.62 -59.41,91.15 -13.98,35.53 -20.97,75.43 -20.97,119.12l0 233.85c0,43.69 6.99,83.29 20.97,118.82 13.97,35.83 33.78,66.11 59.41,91.45 25.62,25.34 56.2,44.85 91.73,58.83 35.53,13.98 74.85,20.97 117.95,20.97l298.8 0c43.1,0 82.42,-6.99 118.24,-20.97 35.53,-13.98 66.11,-33.49 91.44,-58.83 25.63,-25.34 45.44,-55.62 59.42,-91.45 13.97,-35.53 20.96,-75.13 20.96,-118.82l0 -233.85zm1993.17 -494.8l-204.73 1146.57c-4.66,22.71 -14.85,42.52 -30.87,58.82 -16.02,16.6 -35.24,27.09 -57.96,31.75 -23.29,4.07 -45.43,1.45 -66.1,-7.57 -20.97,-9.32 -37.28,-23.59 -49.22,-42.81l-405.97 -667.21 -407.14 667.21c-9.61,16.6 -22.72,29.41 -39.61,38.44 -16.89,9.03 -34.95,13.69 -54.17,13.69 -26.79,0 -50.38,-8.74 -70.77,-25.63 -20.38,-17.19 -32.9,-39.32 -37.56,-66.69l-206.48 -1146.57 225.11 0 146.78 807.87 350.06 -558c9.61,-16.31 22.72,-29.12 39.61,-38.44 16.6,-9.03 34.65,-13.39 54.17,-13.39 19.22,0 37.27,4.36 53.58,13.39 16.6,9.32 30.29,22.13 41.07,38.44l348.01 558 146.78 -807.87 225.41 0z"/>
  <g id="_105553200867808">
   <path class="fil1" d="M109.62 5654.09l1322.04 0 3507.68 -4115.56 3707.53 4115.56 1322.03 0c-1690.66,-1879.1 -3379.64,-3763.77 -5066.92,-5654.09 -1595.49,1890.31 -3192.95,3774.97 -4792.37,5654.09z"/>
   <polygon class="fil1" points="3912.35,4685.67 4786.96,5659.75 5916.23,5659.75 4492.25,4083.98 4970.64,3533.31 6893.44,5663.96 7992.18,5654.09 4970.64,2241.11 2010.16,5634.35 3078.36,5634.35 "/>
  </g>
 </g>
</svg>
