<svg width="228" height="166" viewBox="0 0 228 166" fill="none" xmlns="http://www.w3.org/2000/svg">
<path d="M27.6773 165.479H22.6635V158.688H5.02012V165.479H0V151.641C0 149.626 0.349063 147.769 1.04085 146.069C1.73921 144.37 2.70111 142.908 3.93968 141.689C5.17169 140.464 6.63423 139.516 8.32095 138.831C10.0075 138.153 11.8455 137.81 13.8419 137.81H25.154C25.4965 137.81 25.8259 137.876 26.1356 138.001C26.4453 138.133 26.7154 138.311 26.9459 138.541C27.1765 138.772 27.3611 139.042 27.4862 139.351C27.618 139.661 27.6773 139.99 27.6773 140.339V165.479ZM5.02012 153.67H22.6635V142.829H13.8419C13.6838 142.829 13.361 142.849 12.8667 142.895C12.3726 142.941 11.7996 143.053 11.1472 143.231C10.5015 143.408 9.81651 143.685 9.09169 144.061C8.37366 144.436 7.70811 144.95 7.10206 145.602C6.50257 146.26 6.00171 147.084 5.6065 148.065C5.21785 149.046 5.02012 150.245 5.02012 151.641V153.67ZM62.5621 154.289C62.5621 155.975 62.2723 157.523 61.6925 158.939C61.1127 160.355 60.3089 161.573 59.2812 162.601C58.2469 163.635 57.028 164.432 55.6182 165.005C54.2081 165.578 52.6798 165.867 51.0195 165.867H44.2204C42.5601 165.867 41.025 165.578 39.6086 165.005C38.1922 164.432 36.9733 163.635 35.9456 162.601C34.911 161.573 34.1073 160.355 33.5211 158.939C32.9347 157.523 32.6447 155.975 32.6447 154.289V149C32.6447 147.327 32.9347 145.78 33.5211 144.357C34.1073 142.941 34.911 141.716 35.9456 140.695C36.9733 139.674 38.1922 138.871 39.6086 138.291C41.025 137.711 42.5601 137.422 44.2204 137.422H51.0195C52.6798 137.422 54.2081 137.711 55.6182 138.291C57.028 138.871 58.2469 139.674 59.2812 140.695C60.3089 141.716 61.1127 142.941 61.6925 144.357C62.2723 145.78 62.5621 147.327 62.5621 149V154.289ZM57.5418 149C57.5418 148.012 57.3836 147.11 57.0676 146.306C56.7513 145.503 56.3097 144.818 55.7367 144.245C55.1635 143.672 54.4782 143.231 53.6679 142.914C52.8641 142.598 51.9814 142.44 51.0195 142.44H44.2204C43.2453 142.44 42.3558 142.598 41.552 142.914C40.7483 143.231 40.0565 143.672 39.4769 144.245C38.8971 144.818 38.4489 145.503 38.1329 146.306C37.8167 147.11 37.6585 148.012 37.6585 149V154.289C37.6585 155.277 37.8167 156.172 38.1329 156.976C38.4489 157.786 38.8971 158.471 39.4769 159.044C40.0565 159.617 40.7483 160.058 41.552 160.375C42.3558 160.691 43.2453 160.849 44.2204 160.849H50.9799C51.9549 160.849 52.8444 160.691 53.6548 160.375C54.4586 160.058 55.1503 159.617 55.7234 159.044C56.3032 158.471 56.7513 157.786 57.0676 156.976C57.3836 156.172 57.5418 155.277 57.5418 154.289V149ZM95.1806 163.338C95.1806 163.694 95.1082 164.03 94.9763 164.339C94.8381 164.649 94.66 164.919 94.4361 165.143C94.2121 165.367 93.942 165.545 93.6323 165.67C93.3226 165.802 92.9998 165.867 92.6507 165.867C92.341 165.867 92.0313 165.808 91.7151 165.69C91.399 165.578 91.1156 165.387 90.8719 165.13L72.5368 145.99V165.479H67.5164V139.951C67.5164 139.437 67.6614 138.969 67.9512 138.554C68.2412 138.133 68.6102 137.823 69.0647 137.619C69.5391 137.422 70.0266 137.376 70.5272 137.474C71.0346 137.566 71.4629 137.804 71.8253 138.173L90.1602 157.299V137.81H95.1806V163.338ZM123.899 154.17H108.034V149.119H123.899V154.17ZM126.139 142.829H106.025V165.479H101.004V140.339C101.004 139.99 101.071 139.661 101.202 139.351C101.327 139.042 101.505 138.772 101.729 138.541C101.953 138.311 102.223 138.133 102.533 138.001C102.843 137.876 103.172 137.81 103.534 137.81H126.139V142.829ZM155.615 165.479H132.72C132.358 165.479 132.029 165.413 131.719 165.288C131.409 165.156 131.139 164.978 130.915 164.754C130.691 164.53 130.513 164.26 130.388 163.957C130.257 163.648 130.19 163.312 130.19 162.95V137.81H135.211V160.46H155.615V165.479ZM187.93 154.289C187.93 155.975 187.64 157.523 187.061 158.939C186.481 160.355 185.677 161.573 184.649 162.601C183.615 163.635 182.396 164.432 180.986 165.005C179.576 165.578 178.048 165.867 176.388 165.867H169.588C167.928 165.867 166.393 165.578 164.977 165.005C163.56 164.432 162.341 163.635 161.314 162.601C160.279 161.573 159.475 160.355 158.889 158.939C158.303 157.523 158.013 155.975 158.013 154.289V149C158.013 147.327 158.303 145.78 158.889 144.357C159.475 142.941 160.279 141.716 161.314 140.695C162.341 139.674 163.56 138.871 164.977 138.291C166.393 137.711 167.928 137.422 169.588 137.422H176.388C178.048 137.422 179.576 137.711 180.986 138.291C182.396 138.871 183.615 139.674 184.649 140.695C185.677 141.716 186.481 142.941 187.061 144.357C187.64 145.78 187.93 147.327 187.93 149V154.289ZM182.91 149C182.91 148.012 182.752 147.11 182.436 146.306C182.119 145.503 181.678 144.818 181.105 144.245C180.532 143.672 179.846 143.231 179.036 142.914C178.232 142.598 177.349 142.44 176.388 142.44H169.588C168.613 142.44 167.724 142.598 166.92 142.914C166.116 143.231 165.425 143.672 164.845 144.245C164.265 144.818 163.817 145.503 163.501 146.306C163.185 147.11 163.027 148.012 163.027 149V154.289C163.027 155.277 163.185 156.172 163.501 156.976C163.817 157.786 164.265 158.471 164.845 159.044C165.425 159.617 166.116 160.058 166.92 160.375C167.724 160.691 168.613 160.849 169.588 160.849H176.348C177.323 160.849 178.213 160.691 179.023 160.375C179.827 160.058 180.518 159.617 181.091 159.044C181.671 158.471 182.119 157.786 182.436 156.976C182.752 156.172 182.91 155.277 182.91 154.289V149ZM228 137.81L223.369 163.74C223.263 164.254 223.033 164.702 222.67 165.07C222.308 165.446 221.873 165.683 221.359 165.788C220.832 165.88 220.331 165.821 219.864 165.617C219.389 165.406 219.02 165.084 218.75 164.649L209.566 149.56L200.356 164.649C200.138 165.024 199.842 165.314 199.46 165.518C199.078 165.723 198.669 165.828 198.234 165.828C197.628 165.828 197.094 165.63 196.633 165.248C196.172 164.86 195.889 164.359 195.784 163.74L191.112 137.81H196.205L199.525 156.08L207.445 143.461C207.662 143.092 207.959 142.803 208.341 142.592C208.716 142.388 209.125 142.289 209.566 142.289C210.001 142.289 210.409 142.388 210.778 142.592C211.154 142.803 211.464 143.092 211.707 143.461L219.58 156.08L222.901 137.81H228Z" fill="white"/>
<path fill-rule="evenodd" clip-rule="evenodd" d="M2.47986 127.868H32.3875L111.739 34.794L195.612 127.868H225.52C187.273 85.372 149.064 42.7498 110.895 0C74.8008 42.7498 38.6625 85.3718 2.47986 127.868Z" fill="white"/>
<path fill-rule="evenodd" clip-rule="evenodd" d="M88.5065 105.968L108.292 127.996H133.839L101.625 92.3602L112.447 79.9067L155.946 128.092L180.802 127.868L112.447 50.6833L45.4745 127.422H69.6397L88.5065 105.968Z" fill="white"/>
</svg>
