<svg width="36" height="30" viewBox="0 0 36 30" fill="none" xmlns="http://www.w3.org/2000/svg">
<rect width="36" height="30" rx="5" fill="white"/>
<g clip-path="url(#clip0)">
<path d="M13.7676 17.2732L13.1758 19.4823L11.013 19.528C10.3666 18.3292 10 16.9575 10 15.4999C10 14.0904 10.3428 12.7612 10.9504 11.5908H10.9509L12.8764 11.9438L13.7199 13.8578C13.5433 14.3725 13.4471 14.925 13.4471 15.4999C13.4472 16.1238 13.5602 16.7217 13.7676 17.2732Z" fill="#FBBB00"/>
<path d="M26.8515 13.9121C26.9491 14.4263 27 14.9573 27 15.5C27 16.1086 26.936 16.7022 26.8141 17.2748C26.4004 19.2232 25.3192 20.9246 23.8214 22.1286L23.821 22.1282L21.3957 22.0044L21.0524 19.8616C22.0462 19.2788 22.8229 18.3667 23.2321 17.2748H18.6869V13.9121H23.2984H26.8515Z" fill="#518EF8"/>
<path d="M23.8208 22.128L23.8213 22.1285C22.3647 23.2993 20.5142 23.9998 18.4999 23.9998C15.2629 23.9998 12.4486 22.1906 11.0129 19.528L13.7675 17.2732C14.4853 19.1889 16.3334 20.5527 18.4999 20.5527C19.4312 20.5527 20.3036 20.301 21.0523 19.8615L23.8208 22.128Z" fill="#28B446"/>
<path d="M23.9256 8.95686L21.1719 11.2112C20.3971 10.7269 19.4813 10.4471 18.5 10.4471C16.2844 10.4471 14.4018 11.8735 13.7199 13.8579L10.9509 11.5909H10.9504C12.3651 8.86346 15.2149 7 18.5 7C20.5624 7 22.4535 7.73465 23.9256 8.95686Z" fill="#F14336"/>
</g>
<defs>
<clipPath id="clip0">
<rect width="17" height="17" fill="white" transform="translate(10 7)"/>
</clipPath>
</defs>
</svg>
