<svg width="16" height="16" viewBox="0 0 16 16" fill="none" xmlns="http://www.w3.org/2000/svg">
<path d="M7.25 2.25H2.5C2.3625 2.25 2.25 2.3625 2.25 2.5V7.25C2.25 7.3875 2.3625 7.5 2.5 7.5H7.25C7.3875 7.5 7.5 7.3875 7.5 7.25V2.5C7.5 2.3625 7.3875 2.25 7.25 2.25ZM6.4375 6.4375H3.3125V3.3125H6.4375V6.4375ZM13.5 2.25H8.75C8.6125 2.25 8.5 2.3625 8.5 2.5V7.25C8.5 7.3875 8.6125 7.5 8.75 7.5H13.5C13.6375 7.5 13.75 7.3875 13.75 7.25V2.5C13.75 2.3625 13.6375 2.25 13.5 2.25ZM12.6875 6.4375H9.5625V3.3125H12.6875V6.4375ZM13.5 8.5H8.75C8.6125 8.5 8.5 8.6125 8.5 8.75V13.5C8.5 13.6375 8.6125 13.75 8.75 13.75H13.5C13.6375 13.75 13.75 13.6375 13.75 13.5V8.75C13.75 8.6125 13.6375 8.5 13.5 8.5ZM12.6875 12.6875H9.5625V9.5625H12.6875V12.6875ZM6.625 11.125H4.625V9.125C4.625 9.05625 4.56875 9 4.5 9H3.75C3.68125 9 3.625 9.05625 3.625 9.125V11.125H1.625C1.55625 11.125 1.5 11.1812 1.5 11.25V12C1.5 12.0688 1.55625 12.125 1.625 12.125H3.625V14.125C3.625 14.1938 3.68125 14.25 3.75 14.25H4.5C4.56875 14.25 4.625 14.1938 4.625 14.125V12.125H6.625C6.69375 12.125 6.75 12.0688 6.75 12V11.25C6.75 11.1812 6.69375 11.125 6.625 11.125Z" fill="#A1D9FF"/>
</svg>
