<svg width="16" height="16" viewBox="0 0 16 16" fill="none" xmlns="http://www.w3.org/2000/svg">
<path d="M12 7.33331H9.87998C9.59998 6.55998 8.86665 5.99998 7.99998 5.99998C7.13331 5.99998 6.39998 6.55998 6.11998 7.33331H3.99998C3.77998 7.33331 2.66665 7.26665 2.66665 5.99998V5.33331C2.66665 4.11331 3.69331 3.99998 3.99998 3.99998H10.7866C11.0666 4.77331 11.8 5.33331 12.6666 5.33331C13.1971 5.33331 13.7058 5.1226 14.0809 4.74753C14.4559 4.37245 14.6666 3.86375 14.6666 3.33331C14.6666 2.80288 14.4559 2.29417 14.0809 1.9191C13.7058 1.54403 13.1971 1.33331 12.6666 1.33331C11.8 1.33331 11.0666 1.89331 10.7866 2.66665H3.99998C2.92665 2.66665 1.33331 3.37331 1.33331 5.33331V5.99998C1.33331 7.95998 2.92665 8.66665 3.99998 8.66665H6.11998C6.39998 9.43998 7.13331 9.99998 7.99998 9.99998C8.86665 9.99998 9.59998 9.43998 9.87998 8.66665H12C12.22 8.66665 13.3333 8.73331 13.3333 9.99998V10.6666C13.3333 11.8866 12.3066 12 12 12H5.21331C4.93331 11.2266 4.19998 10.6666 3.33331 10.6666C2.80288 10.6666 2.29417 10.8774 1.9191 11.2524C1.54403 11.6275 1.33331 12.1362 1.33331 12.6666C1.33331 13.1971 1.54403 13.7058 1.9191 14.0809C2.29417 14.4559 2.80288 14.6666 3.33331 14.6666C4.19998 14.6666 4.93331 14.1066 5.21331 13.3333H12C13.0733 13.3333 14.6666 12.62 14.6666 10.6666V9.99998C14.6666 8.04665 13.0733 7.33331 12 7.33331ZM12.6666 2.66665C12.8435 2.66665 13.013 2.73688 13.1381 2.86191C13.2631 2.98693 13.3333 3.1565 13.3333 3.33331C13.3333 3.51012 13.2631 3.67969 13.1381 3.80472C13.013 3.92974 12.8435 3.99998 12.6666 3.99998C12.4898 3.99998 12.3203 3.92974 12.1952 3.80472C12.0702 3.67969 12 3.51012 12 3.33331C12 3.1565 12.0702 2.98693 12.1952 2.86191C12.3203 2.73688 12.4898 2.66665 12.6666 2.66665ZM3.33331 13.3333C3.1565 13.3333 2.98693 13.2631 2.86191 13.1381C2.73688 13.013 2.66665 12.8435 2.66665 12.6666C2.66665 12.4898 2.73688 12.3203 2.86191 12.1952C2.98693 12.0702 3.1565 12 3.33331 12C3.51012 12 3.67969 12.0702 3.80472 12.1952C3.92974 12.3203 3.99998 12.4898 3.99998 12.6666C3.99998 12.8435 3.92974 13.013 3.80472 13.1381C3.67969 13.2631 3.51012 13.3333 3.33331 13.3333Z" fill="#A1D9FF"/>
</svg>
