<svg width="36" height="30" viewBox="0 0 36 30" fill="none" xmlns="http://www.w3.org/2000/svg">
<rect width="36" height="30" rx="5" fill="#0077B5"/>
<path fill-rule="evenodd" clip-rule="evenodd" d="M9.77124 8.1285C9.77124 7.7629 9.92057 7.41227 10.1864 7.15376C10.4522 6.89524 10.8127 6.75 11.1886 6.75H25.3172C25.5034 6.74971 25.688 6.78515 25.8601 6.8543C26.0323 6.92345 26.1888 7.02496 26.3206 7.153C26.4524 7.28105 26.5569 7.43312 26.6282 7.60051C26.6995 7.7679 26.7361 7.94732 26.736 8.1285V21.87C26.7362 22.0512 26.6997 22.2307 26.6285 22.3982C26.5573 22.5656 26.4529 22.7178 26.3212 22.846C26.1895 22.9742 26.0331 23.0758 25.8609 23.1451C25.6888 23.2145 25.5042 23.2501 25.3179 23.25H11.1886C11.0024 23.25 10.818 23.2143 10.646 23.145C10.474 23.0757 10.3177 22.9741 10.1861 22.846C10.0545 22.7179 9.95009 22.5658 9.87891 22.3985C9.80772 22.2312 9.77114 22.0518 9.77124 21.8708V8.1285ZM16.4862 13.041H18.7834V14.163C19.115 13.518 19.9632 12.9375 21.2379 12.9375C23.6816 12.9375 24.2607 14.2223 24.2607 16.5795V20.946H21.7877V17.1165C21.7877 15.774 21.4561 15.0165 20.6141 15.0165C19.4458 15.0165 18.96 15.8333 18.96 17.1165V20.946H16.4862V13.041ZM12.245 20.8433H14.7188V12.9375H12.245V20.8425V20.8433ZM15.0727 10.359C15.0774 10.565 15.0397 10.7698 14.9619 10.9615C14.884 11.1531 14.7676 11.3277 14.6195 11.475C14.4713 11.6223 14.2944 11.7394 14.0992 11.8193C13.9039 11.8992 13.6941 11.9403 13.4823 11.9403C13.2704 11.9403 13.0607 11.8992 12.8654 11.8193C12.6701 11.7394 12.4932 11.6223 12.3451 11.475C12.1969 11.3277 12.0805 11.1531 12.0027 10.9615C11.9249 10.7698 11.8872 10.565 11.8918 10.359C11.901 9.95464 12.0726 9.56985 12.3698 9.28702C12.6671 9.00419 13.0664 8.84581 13.4823 8.84581C13.8981 8.84581 14.2975 9.00419 14.5947 9.28702C14.892 9.56985 15.0636 9.95464 15.0727 10.359Z" fill="white"/>
</svg>
