<svg width="16" height="16" viewBox="0 0 16 16" fill="none" xmlns="http://www.w3.org/2000/svg">
<path d="M12.6667 12.6667H8.66667C8.3 12.6667 8 12.9667 8 13.3333C8 13.7 8.3 14 8.66667 14H12.6667C13.4 14 14 13.4 14 12.6667L14 3.33333C14 2.6 13.4 2 12.6667 2H8.66667C8.3 2 8 2.3 8 2.66667C8 3.03333 8.3 3.33333 8.66667 3.33333H12.6667L12.6667 12.6667Z" fill="#A1D9FF"/>
<path d="M2.23333 8.23333L4.09333 10.0933C4.1397 10.141 4.19922 10.1737 4.26429 10.1873C4.32935 10.2009 4.397 10.1948 4.45857 10.1697C4.52014 10.1447 4.57283 10.1018 4.6099 10.0466C4.64697 9.99146 4.66674 9.92647 4.66667 9.86V8.66667H9.33333C9.7 8.66667 10 8.36667 10 8C10 7.63333 9.7 7.33333 9.33333 7.33333H4.66667L4.66667 6.14C4.66667 5.84 4.30667 5.69333 4.1 5.90667L2.24 7.76667C2.10667 7.89333 2.10667 8.10667 2.23333 8.23333Z" fill="#A1D9FF"/>
</svg>
